<svg width="1623" height="295" viewBox="0 0 1623 295" fill="none" xmlns="http://www.w3.org/2000/svg">
<rect opacity="0.8" x="1302" y="240" width="55" height="55" rx="4" fill="#F99D48"/>
<path opacity="0.6" d="M1531.53 2.78871L1474.6 27.129C1471.72 28.3606 1471.31 32.2761 1473.87 34.0786L1522.55 68.32C1525 70.0402 1528.4 68.5669 1528.81 65.6061L1537.06 7.02454C1537.5 3.93951 1534.39 1.56397 1531.53 2.78871Z" fill="#563662"/>
<circle cx="1598.37" cy="229.366" r="24.3661" fill="#F2718D"/>
<path opacity="0.6" d="M53.4743 165.802L6.56696 185.941C3.69378 187.175 3.28334 191.08 5.83726 192.884L45.9464 221.215C48.3923 222.943 51.7995 221.469 52.2155 218.504L59.0136 170.033C59.4466 166.946 56.3386 164.572 53.4743 165.802Z" fill="#F2718D"/>
</svg>
