<svg width="222" height="46" viewBox="0 0 222 46" fill="none" xmlns="http://www.w3.org/2000/svg">
<path d="M38.9872 11.3853C38.9872 5.09912 33.8772 0 27.5776 0H0L5.13701 5.1261H27.5776C31.0384 5.1261 33.8772 7.93196 33.8772 11.4123C33.8772 14.8657 31.0654 17.6985 27.5776 17.6985H24.9821H17.7362L31.6061 31.539H38.852L29.8758 22.5818C35.0669 21.5026 38.9872 16.9161 38.9872 11.3853Z" fill="url(#paint0_linear)"/>
<path d="M43.6106 41.4405C43.6106 39.8757 44.7732 38.7695 46.3954 38.7695C47.3417 38.7695 48.1258 39.1472 48.5313 39.9027L47.8013 40.3613C47.4769 39.8487 46.9361 39.6059 46.3684 39.6059C45.341 39.6059 44.5569 40.3343 44.5569 41.4405C44.5569 42.5736 45.341 43.3021 46.3684 43.3021C46.9361 43.3021 47.4498 43.0593 47.8013 42.5467L48.5313 43.0053C48.1258 43.7338 47.3417 44.1385 46.3954 44.1385C44.7732 44.1385 43.6106 43.0053 43.6106 41.4405Z" fill="#1D1C1C"/>
<path d="M49.2073 41.4405C49.2073 39.8757 50.3699 38.7695 51.938 38.7695C53.5061 38.7695 54.6687 39.8757 54.6687 41.4405C54.6687 43.0053 53.5061 44.1385 51.938 44.1385C50.3699 44.1385 49.2073 43.0053 49.2073 41.4405ZM53.7224 41.4405C53.7224 40.3074 52.9654 39.6059 51.965 39.6059C50.9376 39.6059 50.1806 40.3343 50.1806 41.4405C50.1806 42.5736 50.9376 43.3021 51.965 43.3021C52.9654 43.3021 53.7224 42.5736 53.7224 41.4405Z" fill="#1D1C1C"/>
<path d="M61.0223 41.0358V44.0575H60.076V41.1437C60.076 40.1185 59.5623 39.6059 58.6431 39.6059C57.6157 39.6059 56.9668 40.1994 56.9668 41.3596V44.0575H56.0205V38.7965H56.9398V39.5789C57.3183 39.0393 57.9942 38.7426 58.8324 38.7426C60.1031 38.7695 61.0223 39.498 61.0223 41.0358Z" fill="#1D1C1C"/>
<path d="M67.7816 41.0358V44.0575H66.8353V41.1437C66.8353 40.1185 66.3216 39.6059 65.4024 39.6059C64.375 39.6059 63.7261 40.1994 63.7261 41.3596V44.0575H62.7798V38.7965H63.699V39.5789C64.0776 39.0393 64.7535 38.7426 65.5916 38.7426C66.8894 38.7695 67.7816 39.498 67.7816 41.0358Z" fill="#1D1C1C"/>
<path d="M74.3245 41.7643H70.0527C70.1608 42.6816 70.9179 43.3021 71.9723 43.3021C72.5941 43.3021 73.1078 43.0863 73.4864 42.6546L74.0001 43.2751C73.5134 43.8417 72.8104 44.1385 71.9182 44.1385C70.2149 44.1385 69.0793 43.0053 69.0793 41.4405C69.0793 39.8757 70.2149 38.7695 71.729 38.7695C73.243 38.7695 74.3245 39.8487 74.3245 41.4675C74.3515 41.5484 74.3515 41.6563 74.3245 41.7643ZM70.0527 41.0628H73.4323C73.3241 40.1725 72.6752 39.5519 71.729 39.5519C70.8367 39.5519 70.1608 40.1725 70.0527 41.0628Z" fill="#1D1C1C"/>
<path d="M75.1897 41.4405C75.1897 39.8757 76.3523 38.7695 77.9745 38.7695C78.9208 38.7695 79.7049 39.1472 80.1104 39.9027L79.3804 40.3613C79.056 39.8487 78.5152 39.6059 77.9475 39.6059C76.9201 39.6059 76.136 40.3343 76.136 41.4405C76.136 42.5736 76.9201 43.3021 77.9475 43.3021C78.5152 43.3021 79.0289 43.0593 79.3804 42.5467L80.1104 43.0053C79.7049 43.7338 78.9208 44.1385 77.9745 44.1385C76.3523 44.1385 75.1897 43.0053 75.1897 41.4405Z" fill="#1D1C1C"/>
<path d="M84.3822 43.7608C84.0848 44.0036 83.6522 44.1385 83.2196 44.1385C82.1652 44.1385 81.5433 43.545 81.5433 42.4928V39.606H80.6511V38.8236H81.5433V37.6635H82.4896V38.8236H84.0037V39.606H82.4896V42.4658C82.4896 43.0324 82.7871 43.3561 83.3278 43.3561C83.5982 43.3561 83.8685 43.2752 84.0848 43.1133L84.3822 43.7608Z" fill="#1D1C1C"/>
<path d="M85.1934 43.4371C85.1934 43.0324 85.4908 42.7626 85.8693 42.7626C86.2208 42.7626 86.5182 43.0324 86.5182 43.4371C86.5182 43.8418 86.2208 44.1116 85.8693 44.1116C85.4908 44.1385 85.1934 43.8418 85.1934 43.4371Z" fill="#1D1C1C"/>
<path d="M89.8979 43.5179L90.3035 42.7625C90.7631 43.0862 91.4661 43.3021 92.142 43.3021C93.0342 43.3021 93.3857 43.0323 93.3857 42.6006C93.3857 41.4135 90.0602 42.4387 90.0602 40.3613C90.0602 39.417 90.8983 38.7965 92.2502 38.7965C92.9261 38.7965 93.7101 38.9854 94.1698 39.2821L93.7642 40.0376C93.2775 39.7408 92.7639 39.6329 92.2502 39.6329C91.412 39.6329 91.0065 39.9296 91.0065 40.3613C91.0065 41.6024 94.359 40.5772 94.359 42.6276C94.359 43.5719 93.4938 44.1924 92.0879 44.1924C91.1957 44.1384 90.3305 43.8686 89.8979 43.5179Z" fill="#1D1C1C"/>
<path d="M100.55 41.0358V44.0575H99.6039V41.1437C99.6039 40.1185 99.0902 39.6059 98.1709 39.6059C97.1435 39.6059 96.4946 40.1995 96.4946 41.3596V44.0575H95.5483V36.6921H96.4946V39.552C96.9002 39.0394 97.5491 38.7696 98.3602 38.7696C99.6309 38.7696 100.55 39.498 100.55 41.0358Z" fill="#1D1C1C"/>
<path d="M106.498 40.901V44.0845H105.606V43.3831C105.282 43.8687 104.714 44.1385 103.876 44.1385C102.686 44.1385 101.929 43.491 101.929 42.6007C101.929 41.7643 102.47 41.0628 104.038 41.0628H105.552V40.874C105.552 40.0646 105.093 39.6059 104.146 39.6059C103.524 39.6059 102.875 39.8218 102.47 40.1725L102.064 39.471C102.605 39.0394 103.389 38.7966 104.254 38.7966C105.66 38.7696 106.498 39.4441 106.498 40.901ZM105.525 42.4658V41.7373H104.065C103.119 41.7373 102.848 42.115 102.848 42.5467C102.848 43.0593 103.281 43.41 104.011 43.41C104.741 43.3831 105.282 43.0593 105.525 42.4658Z" fill="#1D1C1C"/>
<path d="M111.095 38.7695V39.6868C111.013 39.6868 110.932 39.6868 110.878 39.6868C109.851 39.6868 109.229 40.3074 109.229 41.4675V44.0845H108.283V38.8235H109.202V39.7138C109.499 39.0663 110.175 38.7695 111.095 38.7695Z" fill="#1D1C1C"/>
<path d="M116.962 41.7643H112.69C112.798 42.6816 113.555 43.3021 114.61 43.3021C115.232 43.3021 115.745 43.0863 116.124 42.6546L116.637 43.2751C116.151 43.8417 115.448 44.1385 114.556 44.1385C112.852 44.1385 111.717 43.0053 111.717 41.4405C111.717 39.8757 112.852 38.7695 114.366 38.7695C115.88 38.7695 116.962 39.8487 116.962 41.4675C116.989 41.5484 116.962 41.6563 116.962 41.7643ZM112.69 41.0628H116.07C115.962 40.1725 115.313 39.5519 114.366 39.5519C113.447 39.5519 112.771 40.1725 112.69 41.0628Z" fill="#1D1C1C"/>
<path d="M117.854 43.4371C117.854 43.0324 118.151 42.7626 118.53 42.7626C118.881 42.7626 119.179 43.0324 119.179 43.4371C119.179 43.8418 118.881 44.1116 118.53 44.1116C118.151 44.1385 117.854 43.8418 117.854 43.4371Z" fill="#1D1C1C"/>
<path d="M127.966 41.7643H123.694C123.802 42.6816 124.559 43.3021 125.614 43.3021C126.236 43.3021 126.749 43.0863 127.128 42.6546L127.641 43.2751C127.155 43.8417 126.452 44.1385 125.56 44.1385C123.856 44.1385 122.721 43.0053 122.721 41.4405C122.721 39.8757 123.856 38.7695 125.37 38.7695C126.884 38.7695 127.966 39.8487 127.966 41.4675C127.993 41.5484 127.993 41.6563 127.966 41.7643ZM123.694 41.0628H127.074C126.966 40.1725 126.317 39.5519 125.37 39.5519C124.478 39.5519 123.802 40.1725 123.694 41.0628Z" fill="#1D1C1C"/>
<path d="M132.535 44.0575L131.021 42.034L129.48 44.0575H128.425L130.507 41.3596L128.533 38.7965H129.588L131.048 40.6851L132.481 38.7965H133.535L131.535 41.3596L133.643 44.0575H132.535Z" fill="#1D1C1C"/>
<path d="M140.105 41.4405C140.105 43.0593 138.97 44.1385 137.429 44.1385C136.672 44.1385 136.023 43.8417 135.59 43.2751V46H134.644V38.8235H135.563V39.6599C135.996 39.0663 136.672 38.7695 137.456 38.7695C138.997 38.7695 140.105 39.8217 140.105 41.4405ZM139.132 41.4405C139.132 40.3343 138.375 39.6059 137.348 39.6059C136.347 39.6059 135.59 40.3343 135.59 41.4405C135.59 42.5736 136.347 43.3021 137.348 43.3021C138.375 43.3021 139.132 42.5736 139.132 41.4405Z" fill="#1D1C1C"/>
<path d="M144.269 38.7695V39.6868C144.188 39.6868 144.107 39.6868 144.053 39.6868C143.025 39.6868 142.403 40.3074 142.403 41.4675V44.0845H141.457V38.8235H142.376V39.7138C142.674 39.0663 143.35 38.7695 144.269 38.7695Z" fill="#1D1C1C"/>
<path d="M150.136 41.7643H145.864C145.972 42.6816 146.729 43.3021 147.784 43.3021C148.405 43.3021 148.919 43.0863 149.298 42.6546L149.811 43.2751C149.325 43.8417 148.622 44.1385 147.729 44.1385C146.026 44.1385 144.891 43.0053 144.891 41.4405C144.891 39.8757 146.026 38.7695 147.54 38.7695C149.054 38.7695 150.136 39.8487 150.136 41.4675C150.136 41.5484 150.136 41.6563 150.136 41.7643ZM145.864 41.0628H149.244C149.135 40.1725 148.487 39.5519 147.54 39.5519C146.621 39.5519 145.945 40.1725 145.864 41.0628Z" fill="#1D1C1C"/>
<path d="M150.812 43.5179L151.218 42.7625C151.677 43.0862 152.38 43.3021 153.056 43.3021C153.948 43.3021 154.3 43.0323 154.3 42.6006C154.3 41.4135 150.974 42.4387 150.974 40.3613C150.974 39.417 151.812 38.7965 153.164 38.7965C153.84 38.7965 154.624 38.9854 155.084 39.2821L154.678 40.0376C154.192 39.7408 153.678 39.6329 153.164 39.6329C152.326 39.6329 151.921 39.9296 151.921 40.3613C151.921 41.6024 155.273 40.5772 155.273 42.6276C155.273 43.5719 154.408 44.1924 153.002 44.1924C152.11 44.1384 151.245 43.8686 150.812 43.5179Z" fill="#1D1C1C"/>
<path d="M155.787 43.5179L156.192 42.7625C156.652 43.0862 157.355 43.3021 158.031 43.3021C158.923 43.3021 159.274 43.0323 159.274 42.6006C159.274 41.4135 155.949 42.4387 155.949 40.3613C155.949 39.417 156.787 38.7965 158.139 38.7965C158.815 38.7965 159.599 38.9854 160.058 39.2821L159.653 40.0376C159.166 39.7408 158.653 39.6329 158.139 39.6329C157.301 39.6329 156.895 39.9296 156.895 40.3613C156.895 41.6024 160.248 40.5772 160.248 42.6276C160.248 43.5719 159.383 44.1924 157.977 44.1924C157.084 44.1384 156.219 43.8686 155.787 43.5179Z" fill="#1D1C1C"/>
<path d="M160.978 43.4371C160.978 43.0324 161.275 42.7626 161.654 42.7626C162.005 42.7626 162.303 43.0324 162.303 43.4371C162.303 43.8418 162.005 44.1116 161.654 44.1116C161.302 44.1385 160.978 43.8418 160.978 43.4371Z" fill="#1D1C1C"/>
<path d="M50.4238 9.28088H45.3139L38.6357 24.2275L42.2317 27.8158L46.2872 18.0492L47.8283 14.326L51.3701 22.8516L52.9923 26.7636L53.9116 28.9219L54.4253 30.19L54.966 31.539H60.4005L50.4238 9.28088Z" fill="#1D1C1C"/>
<path d="M93.4124 9.28089L86.1124 31.539H80.5699L75.6492 16.4574L70.5933 31.539H65.0777L57.7507 9.28089H63.104L68.1329 24.929L73.4051 9.28089H78.1906L83.2736 25.0369L88.4647 9.25391H93.4124V9.28089Z" fill="#1D1C1C"/>
<path d="M94.0884 20.3965C94.0884 13.6786 99.2524 8.87622 106.201 8.87622C110.067 8.87622 113.285 10.2792 115.393 12.8152L112.068 15.8639C110.581 14.1372 108.688 13.2469 106.471 13.2469C102.308 13.2469 99.3335 16.1607 99.3335 20.3695C99.3335 24.5783 102.308 27.4921 106.471 27.4921C108.715 27.4921 110.581 26.6017 112.068 24.8481L115.393 27.8967C113.285 30.4598 110.067 31.8627 106.174 31.8627C99.2524 31.9167 94.0884 27.1143 94.0884 20.3965Z" fill="#1D1C1C"/>
<path d="M141.079 29.3536L142.836 25.4686C144.729 26.8446 147.513 27.7888 150.19 27.7888C153.245 27.7888 154.489 26.7636 154.489 25.4146C154.489 21.2598 141.511 24.1196 141.511 15.8369C141.511 12.0598 144.566 8.9032 150.92 8.9032C153.732 8.9032 156.598 9.57769 158.653 10.8727L157.057 14.7847C154.976 13.5976 152.84 13.0311 150.866 13.0311C147.811 13.0311 146.621 14.1642 146.621 15.5671C146.621 19.668 159.599 16.8352 159.599 25.0099C159.599 28.7331 156.517 31.9167 150.136 31.9167C146.621 31.9167 143.052 30.8645 141.079 29.3536Z" fill="#1D1C1C"/>
<path d="M167.466 13.4627H160.329V9.28088H179.768V13.4897H172.63V31.5659H167.466V13.4627Z" fill="#1D1C1C"/>
<path d="M199.397 27.4111V31.539H182.526V9.28088H199.397V13.4087H187.663V18.2381H198.019V22.258H187.663V27.4111H199.397Z" fill="#1D1C1C"/>
<path d="M216.457 31.539L212.158 25.3337H211.915H207.427V31.539H202.236V9.28088H211.888C217.836 9.28088 221.567 12.3565 221.567 17.3477C221.567 20.6932 219.891 23.1483 216.971 24.3894L221.973 31.539H216.457ZM211.618 13.4627H207.4V21.2328H211.618C214.781 21.2328 216.376 19.7759 216.376 17.3477C216.376 14.8926 214.781 13.4627 211.618 13.4627Z" fill="#1D1C1C"/>
<path d="M130.507 9.28088H125.424L115.475 31.539H120.774L122.748 26.7636L126.1 18.7507L127.939 14.326L129.777 18.7507L133.968 28.787H133.941L135.076 31.539H140.484L130.507 9.28088Z" fill="#1D1C1C"/>
<path d="M3.21729 17.6715L17.0872 31.512H24.3331L10.4632 17.6715H3.21729Z" fill="url(#paint1_linear)"/>
<defs>
<linearGradient id="paint0_linear" x1="0" y1="15.7576" x2="38.9848" y2="15.7576" gradientUnits="userSpaceOnUse">
<stop stop-color="#F2718D"/>
<stop offset="0.0858854" stop-color="#E56D8A"/>
<stop offset="0.2228" stop-color="#CF6383"/>
<stop offset="0.3937" stop-color="#AE567A"/>
<stop offset="0.5917" stop-color="#84466F"/>
<stop offset="0.8021" stop-color="#563662"/>
</linearGradient>
<linearGradient id="paint1_linear" x1="3.20558" y1="24.5931" x2="24.3306" y2="24.5931" gradientUnits="userSpaceOnUse">
<stop stop-color="#FAA72E"/>
<stop offset="0.0144188" stop-color="#FAA533"/>
<stop offset="0.156" stop-color="#F7965B"/>
<stop offset="0.2955" stop-color="#F58A70"/>
<stop offset="0.4301" stop-color="#F4807D"/>
<stop offset="0.5587" stop-color="#F37886"/>
<stop offset="0.6784" stop-color="#F2738B"/>
<stop offset="0.7807" stop-color="#F2718D"/>
</linearGradient>
</defs>
</svg>
