<svg width="263" height="55" viewBox="0 0 263 55" fill="none" xmlns="http://www.w3.org/2000/svg">
<path d="M46.1932 13.4897C46.1932 6.04159 40.1387 0 32.6748 0H0L6.08648 6.07355H32.6748C36.7752 6.07355 40.1387 9.39802 40.1387 13.5216C40.1387 17.6133 36.8072 20.9697 32.6748 20.9697H29.5995H21.0144L37.4479 37.3683H46.033L35.3977 26.7556C41.5482 25.477 46.1932 20.0427 46.1932 13.4897Z" fill="white"/>
<path d="M51.6709 49.0992C51.6709 47.2452 53.0484 45.9346 54.9704 45.9346C56.0916 45.9346 57.0206 46.3821 57.5011 47.2771L56.6362 47.8206C56.2518 47.2132 55.6111 46.9255 54.9384 46.9255C53.7211 46.9255 52.7921 47.7886 52.7921 49.0992C52.7921 50.4418 53.7211 51.3049 54.9384 51.3049C55.6111 51.3049 56.2197 51.0172 56.6362 50.4098L57.5011 50.9532C57.0206 51.8163 56.0916 52.2958 54.9704 52.2958C53.0484 52.2958 51.6709 50.9532 51.6709 49.0992Z" fill="white"/>
<path d="M58.3018 49.0992C58.3018 47.2452 59.6792 45.9346 61.5372 45.9346C63.3952 45.9346 64.7726 47.2452 64.7726 49.0992C64.7726 50.9532 63.3952 52.2958 61.5372 52.2958C59.6792 52.2958 58.3018 50.9532 58.3018 49.0992ZM63.6515 49.0992C63.6515 47.7566 62.7545 46.9255 61.5692 46.9255C60.3519 46.9255 59.455 47.7886 59.455 49.0992C59.455 50.4418 60.3519 51.3049 61.5692 51.3049C62.7545 51.3049 63.6515 50.4418 63.6515 49.0992Z" fill="white"/>
<path d="M72.3008 48.6195V52.1997H71.1796V48.7473C71.1796 47.5326 70.571 46.9253 69.4818 46.9253C68.2645 46.9253 67.4957 47.6285 67.4957 49.0031V52.1997H66.3745V45.9663H67.4637V46.8933C67.9122 46.254 68.713 45.9023 69.7061 45.9023C71.2117 45.9343 72.3008 46.7974 72.3008 48.6195Z" fill="white"/>
<path d="M80.3096 48.6195V52.1997H79.1884V48.7473C79.1884 47.5326 78.5798 46.9253 77.4906 46.9253C76.2733 46.9253 75.5045 47.6285 75.5045 49.0031V52.1997H74.3833V45.9663H75.4725V46.8933C75.9209 46.254 76.7218 45.9023 77.7148 45.9023C79.2525 45.9343 80.3096 46.7974 80.3096 48.6195Z" fill="white"/>
<path d="M88.0618 49.4828H83.0004C83.1285 50.5697 84.0255 51.3049 85.2748 51.3049C86.0116 51.3049 86.6202 51.0491 87.0687 50.5377L87.6774 51.2729C87.1008 51.9442 86.2679 52.2958 85.2107 52.2958C83.1926 52.2958 81.8472 50.9532 81.8472 49.0992C81.8472 47.2452 83.1926 45.9346 84.9865 45.9346C86.7804 45.9346 88.0618 47.2132 88.0618 49.1312C88.0938 49.2271 88.0938 49.3549 88.0618 49.4828ZM83.0004 48.6517H87.0047C86.8765 47.5968 86.1077 46.8616 84.9865 46.8616C83.9294 46.8616 83.1285 47.5968 83.0004 48.6517Z" fill="white"/>
<path d="M89.0869 49.0992C89.0869 47.2452 90.4644 45.9346 92.3864 45.9346C93.5076 45.9346 94.4366 46.3821 94.9171 47.2771L94.0522 47.8206C93.6678 47.2132 93.0271 46.9255 92.3544 46.9255C91.1371 46.9255 90.2081 47.7886 90.2081 49.0992C90.2081 50.4418 91.1371 51.3049 92.3544 51.3049C93.0271 51.3049 93.6358 51.0172 94.0522 50.4098L94.9171 50.9532C94.4366 51.8163 93.5076 52.2958 92.3864 52.2958C90.4644 52.2958 89.0869 50.9532 89.0869 49.0992Z" fill="white"/>
<path d="M99.9783 51.8479C99.626 52.1356 99.1134 52.2954 98.6009 52.2954C97.3515 52.2954 96.6148 51.5921 96.6148 50.3455V46.9251H95.5576V45.9981H96.6148V44.6235H97.7359V45.9981H99.5299V46.9251H97.7359V50.3135C97.7359 50.9848 98.0883 51.3684 98.729 51.3684C99.0494 51.3684 99.3697 51.2725 99.626 51.0807L99.9783 51.8479Z" fill="white"/>
<path d="M100.939 51.4647C100.939 50.9852 101.292 50.6655 101.74 50.6655C102.157 50.6655 102.509 50.9852 102.509 51.4647C102.509 51.9442 102.157 52.2638 101.74 52.2638C101.292 52.2958 100.939 51.9442 100.939 51.4647Z" fill="white"/>
<path d="M106.513 51.5609L106.994 50.6658C107.538 51.0494 108.371 51.3051 109.172 51.3051C110.229 51.3051 110.646 50.9855 110.646 50.474C110.646 49.0675 106.705 50.2822 106.705 47.8208C106.705 46.702 107.698 45.9668 109.3 45.9668C110.101 45.9668 111.03 46.1906 111.575 46.5422L111.094 47.4372C110.517 47.0856 109.909 46.9577 109.3 46.9577C108.307 46.9577 107.827 47.3094 107.827 47.8208C107.827 49.2913 111.799 48.0766 111.799 50.506C111.799 51.6248 110.774 52.36 109.108 52.36C108.051 52.2961 107.026 51.9764 106.513 51.5609Z" fill="white"/>
<path d="M119.135 48.6197V52.1999H118.014V48.7475C118.014 47.5328 117.405 46.9255 116.316 46.9255C115.099 46.9255 114.33 47.6287 114.33 49.0033V52.1999H113.208V43.4731H114.33V46.8615C114.81 46.2542 115.579 45.9345 116.54 45.9345C118.046 45.9345 119.135 46.7976 119.135 48.6197Z" fill="white"/>
<path d="M126.182 48.4596V52.2316H125.125V51.4005C124.741 51.9759 124.068 52.2955 123.075 52.2955C121.666 52.2955 120.769 51.5283 120.769 50.4735C120.769 49.4825 121.409 48.6514 123.267 48.6514H125.061V48.4276C125.061 47.4687 124.517 46.9252 123.395 46.9252C122.659 46.9252 121.89 47.181 121.409 47.5965L120.929 46.7654C121.569 46.2539 122.498 45.9663 123.523 45.9663C125.189 45.9343 126.182 46.7334 126.182 48.4596ZM125.029 50.3136V49.4505H123.299C122.178 49.4505 121.858 49.8981 121.858 50.4095C121.858 51.0169 122.37 51.4324 123.235 51.4324C124.1 51.4005 124.741 51.0169 125.029 50.3136Z" fill="white"/>
<path d="M131.628 45.9346V47.0214C131.532 47.0214 131.436 47.0214 131.372 47.0214C130.154 47.0214 129.418 47.7566 129.418 49.1312V52.2319H128.296V45.9985H129.386V47.0534C129.738 46.2862 130.539 45.9346 131.628 45.9346Z" fill="white"/>
<path d="M138.579 49.4828H133.518C133.646 50.5697 134.543 51.3049 135.792 51.3049C136.529 51.3049 137.138 51.0491 137.586 50.5377L138.195 51.2729C137.618 51.9442 136.785 52.2958 135.728 52.2958C133.71 52.2958 132.365 50.9532 132.365 49.0992C132.365 47.2452 133.71 45.9346 135.504 45.9346C137.298 45.9346 138.579 47.2132 138.579 49.1312C138.611 49.2271 138.579 49.3549 138.579 49.4828ZM133.518 48.6517H137.522C137.394 47.5968 136.625 46.8616 135.504 46.8616C134.415 46.8616 133.614 47.5968 133.518 48.6517Z" fill="white"/>
<path d="M139.637 51.4647C139.637 50.9852 139.989 50.6655 140.438 50.6655C140.854 50.6655 141.206 50.9852 141.206 51.4647C141.206 51.9442 140.854 52.2638 140.438 52.2638C139.989 52.2958 139.637 51.9442 139.637 51.4647Z" fill="white"/>
<path d="M151.617 49.4828H146.556C146.684 50.5697 147.581 51.3049 148.83 51.3049C149.567 51.3049 150.176 51.0491 150.624 50.5377L151.233 51.2729C150.656 51.9442 149.824 52.2958 148.766 52.2958C146.748 52.2958 145.403 50.9532 145.403 49.0992C145.403 47.2452 146.748 45.9346 148.542 45.9346C150.336 45.9346 151.617 47.2132 151.617 49.1312C151.65 49.2271 151.65 49.3549 151.617 49.4828ZM146.556 48.6517H150.56C150.432 47.5968 149.663 46.8616 148.542 46.8616C147.485 46.8616 146.684 47.5968 146.556 48.6517Z" fill="white"/>
<path d="M157.031 52.2002L155.237 49.8027L153.411 52.2002H152.162L154.629 49.0036L152.29 45.9668H153.54L155.269 48.2044L156.967 45.9668H158.217L155.846 49.0036L158.345 52.2002H157.031Z" fill="white"/>
<path d="M166.001 49.0992C166.001 51.0172 164.655 52.2958 162.829 52.2958C161.932 52.2958 161.164 51.9442 160.651 51.2729V54.5015H159.53V45.9985H160.619V46.9895C161.131 46.2862 161.932 45.9346 162.861 45.9346C164.687 45.9346 166.001 47.1813 166.001 49.0992ZM164.847 49.0992C164.847 47.7886 163.95 46.9255 162.733 46.9255C161.548 46.9255 160.651 47.7886 160.651 49.0992C160.651 50.4418 161.548 51.3049 162.733 51.3049C163.95 51.3049 164.847 50.4418 164.847 49.0992Z" fill="white"/>
<path d="M170.934 45.9346V47.0214C170.838 47.0214 170.742 47.0214 170.678 47.0214C169.461 47.0214 168.724 47.7566 168.724 49.1312V52.2319H167.603V45.9985H168.692V47.0534C169.044 46.2862 169.845 45.9346 170.934 45.9346Z" fill="white"/>
<path d="M177.886 49.4828H172.824C172.952 50.5697 173.849 51.3049 175.099 51.3049C175.835 51.3049 176.444 51.0491 176.892 50.5377L177.501 51.2729C176.924 51.9442 176.092 52.2958 175.034 52.2958C173.016 52.2958 171.671 50.9532 171.671 49.0992C171.671 47.2452 173.016 45.9346 174.81 45.9346C176.604 45.9346 177.886 47.2132 177.886 49.1312C177.886 49.2271 177.886 49.3549 177.886 49.4828ZM172.824 48.6517H176.828C176.7 47.5968 175.931 46.8616 174.81 46.8616C173.721 46.8616 172.92 47.5968 172.824 48.6517Z" fill="white"/>
<path d="M178.686 51.5609L179.167 50.6658C179.711 51.0494 180.544 51.3051 181.345 51.3051C182.402 51.3051 182.818 50.9855 182.818 50.474C182.818 49.0675 178.878 50.2822 178.878 47.8208C178.878 46.702 179.871 45.9668 181.473 45.9668C182.274 45.9668 183.203 46.1906 183.747 46.5422L183.267 47.4372C182.69 47.0856 182.082 46.9577 181.473 46.9577C180.48 46.9577 179.999 47.3094 179.999 47.8208C179.999 49.2913 183.972 48.0766 183.972 50.506C183.972 51.6248 182.947 52.36 181.281 52.36C180.224 52.2961 179.199 51.9764 178.686 51.5609Z" fill="white"/>
<path d="M184.581 51.5609L185.061 50.6658C185.606 51.0494 186.439 51.3051 187.239 51.3051C188.297 51.3051 188.713 50.9855 188.713 50.474C188.713 49.0675 184.773 50.2822 184.773 47.8208C184.773 46.702 185.766 45.9668 187.368 45.9668C188.168 45.9668 189.097 46.1906 189.642 46.5422L189.161 47.4372C188.585 47.0856 187.976 46.9577 187.368 46.9577C186.374 46.9577 185.894 47.3094 185.894 47.8208C185.894 49.2913 189.866 48.0766 189.866 50.506C189.866 51.6248 188.841 52.36 187.175 52.36C186.118 52.2961 185.093 51.9764 184.581 51.5609Z" fill="white"/>
<path d="M190.731 51.4647C190.731 50.9852 191.083 50.6655 191.532 50.6655C191.948 50.6655 192.301 50.9852 192.301 51.4647C192.301 51.9442 191.948 52.2638 191.532 52.2638C191.115 52.2958 190.731 51.9442 190.731 51.4647Z" fill="white"/>
<path d="M59.7437 10.9961H53.6893L45.7769 28.7053L50.0374 32.9568L54.8425 21.3851L56.6685 16.9737L60.8649 27.075L62.787 31.7101L63.8761 34.2674L64.4848 35.7698L65.1255 37.3681H71.5643L59.7437 10.9961Z" fill="white"/>
<path d="M110.678 10.9963L102.029 37.3683H95.4616L89.6314 19.4993L83.641 37.3683H77.106L68.4248 10.9963H74.7676L80.7259 29.5366L86.9725 10.9963H92.6426L98.665 29.6645L104.816 10.9644H110.678V10.9963Z" fill="white"/>
<path d="M111.479 24.1661C111.479 16.2066 117.598 10.5166 125.83 10.5166C130.411 10.5166 134.223 12.1788 136.722 15.1836L132.782 18.7958C131.02 16.75 128.777 15.6951 126.151 15.6951C121.217 15.6951 117.694 19.1474 117.694 24.1341C117.694 29.1208 121.217 32.5732 126.151 32.5732C128.809 32.5732 131.02 31.5183 132.782 29.4405L136.722 33.0527C134.223 36.0894 130.411 37.7517 125.798 37.7517C117.598 37.8156 111.479 32.1257 111.479 24.1661Z" fill="white"/>
<path d="M167.154 34.7786L169.236 30.1755C171.478 31.8058 174.778 32.9246 177.949 32.9246C181.569 32.9246 183.043 31.7099 183.043 30.1116C183.043 25.1888 167.666 28.5772 167.666 18.7636C167.666 14.2884 171.286 10.5483 178.814 10.5483C182.146 10.5483 185.541 11.3475 187.976 12.8819L186.086 17.5169C183.619 16.1104 181.089 15.4391 178.75 15.4391C175.13 15.4391 173.721 16.7817 173.721 18.444C173.721 23.3028 189.097 19.9464 189.097 29.6321C189.097 34.0434 185.445 37.8154 177.885 37.8154C173.721 37.8154 169.492 36.5687 167.154 34.7786Z" fill="white"/>
<path d="M198.419 15.9508H189.962V10.9961H212.995V15.9828H204.538V37.4001H198.419V15.9508Z" fill="white"/>
<path d="M236.251 32.4773V37.3681H216.262V10.9961H236.251V15.8869H222.349V21.6088H234.618V26.3718H222.349V32.4773H236.251Z" fill="white"/>
<path d="M256.465 37.3681L251.372 30.0159H251.083H245.766V37.3681H239.615V10.9961H251.051C258.099 10.9961 262.52 14.6402 262.52 20.5539C262.52 24.5177 260.534 27.4267 257.074 28.8971L263 37.3681H256.465ZM250.731 15.9508H245.734V25.1571H250.731C254.479 25.1571 256.369 23.4309 256.369 20.5539C256.369 17.645 254.479 15.9508 250.731 15.9508Z" fill="white"/>
<path d="M154.629 10.9961H148.606L136.818 37.3681H143.097L145.435 31.7101L149.407 22.2162L151.586 16.9737L153.764 22.2162L158.729 34.1076H158.697L160.043 37.3681H166.449L154.629 10.9961Z" fill="white"/>
<path d="M3.81201 20.9375L20.2455 37.3361H28.8306L12.3972 20.9375H3.81201Z" fill="white"/>
</svg>
